HIERARCHY
ROOT Model
{
	OFFSET 0 0 0
	CHANNELS 6 Xposition Yposition Zposition Zrotation Xrotation Yrotation
	JOINT Model1
	{
		OFFSET 0 -2.25479 2.99384
		CHANNELS 3 Zrotation Xrotation Yrotation
		JOINT Model2
		{
			OFFSET 12.111 0 0
			CHANNELS 3 Zrotation Xrotation Yrotation
			JOINT Model3
			{
				OFFSET 11.5502 0 0
				CHANNELS 3 Zrotation Xrotation Yrotation
				JOINT Model4
				{
					OFFSET 11.781 0 0
					CHANNELS 3 Zrotation Xrotation Yrotation
					JOINT Model5
					{
						OFFSET 20.0601 0 0
						CHANNELS 3 Zrotation Xrotation Yrotation
						JOINT Model6
						{
							OFFSET 11.1962 0 0
							CHANNELS 3 Zrotation Xrotation Yrotation
							End Site
							{
								OFFSET 0 0 0
							}
						}
					}
					JOINT Model7
					{
						OFFSET 10.8223 0.417534 3.51114
						CHANNELS 3 Zrotation Xrotation Yrotation
						JOINT Model8
						{
							OFFSET -6.07944 0 0
							CHANNELS 3 Zrotation Xrotation Yrotation
							JOINT Model9
							{
								OFFSET -0.277405 10.39 -0.051239
								CHANNELS 3 Zrotation Xrotation Yrotation
								JOINT Model10
								{
									OFFSET -3.43909 -0.282043 1.86679
									CHANNELS 3 Zrotation Xrotation Yrotation
									JOINT Model11
									{
										OFFSET 13.0269 0 0
										CHANNELS 3 Zrotation Xrotation Yrotation
										JOINT Model12
										{
											OFFSET 10.8866 0 0
											CHANNELS 3 Zrotation Xrotation Yrotation
											JOINT Model13
											{
												OFFSET 16.7317 0 0
												CHANNELS 3 Zrotation Xrotation Yrotation
												JOINT Model14
												{
													OFFSET 11.8292 0 0
													CHANNELS 3 Zrotation Xrotation Yrotation
													JOINT Model15
													{
														OFFSET 4.82751 -3.73566 -0.836517
														CHANNELS 3 Zrotation Xrotation Yrotation
														JOINT Model16
														{
															OFFSET 3.75311 -0.0582886 -0.0186462
															CHANNELS 3 Zrotation Xrotation Yrotation
															JOINT Model17
															{
																OFFSET 2.88689 0.0192337 0.014801
																CHANNELS 3 Zrotation Xrotation Yrotation
																End Site
																{
																	OFFSET 0 0 0
																}
															}
														}
													}
													JOINT Model18
													{
														OFFSET 9.72197 -3.06458 0.23877
														CHANNELS 3 Zrotation Xrotation Yrotation
														JOINT Model19
														{
															OFFSET 4.61131 0 0
															CHANNELS 3 Zrotation Xrotation Yrotation
															JOINT Model20
															{
																OFFSET 2.8969 -7.62939e-006 0
																CHANNELS 3 Zrotation Xrotation Yrotation
																End Site
																{
																	OFFSET 0 0 0
																}
															}
														}
													}
													JOINT Model21
													{
														OFFSET 9.54431 -0.745064 0.588928
														CHANNELS 3 Zrotation Xrotation Yrotation
														JOINT Model22
														{
															OFFSET 5.33978 0 0
															CHANNELS 3 Zrotation Xrotation Yrotation
															JOINT Model23
															{
																OFFSET 3.03619 7.62939e-006 0
																CHANNELS 3 Zrotation Xrotation Yrotation
																End Site
																{
																	OFFSET 0 0 0
																}
															}
														}
													}
													JOINT Model24
													{
														OFFSET 9.47758 1.51286 0.485107
														CHANNELS 3 Zrotation Xrotation Yrotation
														JOINT Model25
														{
															OFFSET 4.96136 7.62939e-006 0
															CHANNELS 3 Zrotation Xrotation Yrotation
															JOINT Model26
															{
																OFFSET 2.51965 0 0
																CHANNELS 3 Zrotation Xrotation Yrotation
																End Site
																{
																	OFFSET 0 0 0
																}
															}
														}
													}
													JOINT Model27
													{
														OFFSET 9.34247 3.34117 -0.239288
														CHANNELS 3 Zrotation Xrotation Yrotation
														JOINT Model28
														{
															OFFSET 3.28259 2.28882e-005 0
															CHANNELS 3 Zrotation Xrotation Yrotation
															JOINT Model29
															{
																OFFSET 2.1292 0 0
																CHANNELS 3 Zrotation Xrotation Yrotation
																End Site
																{
																	OFFSET 0 0 0
																}
															}
														}
													}
												}
											}
										}
									}
								}
							}
						}
					}
					JOINT Model30
					{
						OFFSET 10.8223 0.4179 -3.51108
						CHANNELS 3 Zrotation Xrotation Yrotation
						JOINT Model31
						{
							OFFSET 6.07944 0 0
							CHANNELS 3 Zrotation Xrotation Yrotation
							JOINT Model32
							{
								OFFSET 0.277405 -10.39 0.051239
								CHANNELS 3 Zrotation Xrotation Yrotation
								JOINT Model33
								{
									OFFSET 3.43909 0.282043 -1.86679
									CHANNELS 3 Zrotation Xrotation Yrotation
									JOINT Model34
									{
										OFFSET -13.0269 0 0
										CHANNELS 3 Zrotation Xrotation Yrotation
										JOINT Model35
										{
											OFFSET -10.8866 0 0
											CHANNELS 3 Zrotation Xrotation Yrotation
											JOINT Model36
											{
												OFFSET -16.7317 0 0
												CHANNELS 3 Zrotation Xrotation Yrotation
												JOINT Model37
												{
													OFFSET -11.8292 0 0
													CHANNELS 3 Zrotation Xrotation Yrotation
													JOINT Model38
													{
														OFFSET -4.82751 3.73566 0.836517
														CHANNELS 3 Zrotation Xrotation Yrotation
														JOINT Model39
														{
															OFFSET -3.75311 0.0582886 0.0186462
															CHANNELS 3 Zrotation Xrotation Yrotation
															JOINT Model40
															{
																OFFSET -2.88687 -0.0192337 -0.014801
																CHANNELS 3 Zrotation Xrotation Yrotation
																End Site
																{
																	OFFSET 0 0 0
																}
															}
														}
													}
													JOINT Model41
													{
														OFFSET -9.72198 3.06459 -0.23877
														CHANNELS 3 Zrotation Xrotation Yrotation
														JOINT Model42
														{
															OFFSET -4.6113 0 0
															CHANNELS 3 Zrotation Xrotation Yrotation
															JOINT Model43
															{
																OFFSET -2.89691 0 0
																CHANNELS 3 Zrotation Xrotation Yrotation
																End Site
																{
																	OFFSET 0 0 0
																}
															}
														}
													}
													JOINT Model44
													{
														OFFSET -9.54431 0.745064 -0.588928
														CHANNELS 3 Zrotation Xrotation Yrotation
														JOINT Model45
														{
															OFFSET -5.33978 0 0
															CHANNELS 3 Zrotation Xrotation Yrotation
															JOINT Model46
															{
																OFFSET -3.03619 -1.52588e-005 0
																CHANNELS 3 Zrotation Xrotation Yrotation
																End Site
																{
																	OFFSET 0 0 0
																}
															}
														}
													}
													JOINT Model47
													{
														OFFSET -9.4776 -1.51286 -0.485107
														CHANNELS 3 Zrotation Xrotation Yrotation
														JOINT Model48
														{
															OFFSET -4.96136 -1.52588e-005 0
															CHANNELS 3 Zrotation Xrotation Yrotation
															JOINT Model49
															{
																OFFSET -2.51965 0 0
																CHANNELS 3 Zrotation Xrotation Yrotation
																End Site
																{
																	OFFSET 0 0 0
																}
															}
														}
													}
													JOINT Model50
													{
														OFFSET -9.34247 -3.34118 0.239288
														CHANNELS 3 Zrotation Xrotation Yrotation
														JOINT Model51
														{
															OFFSET -3.28259 -2.28882e-005 0
															CHANNELS 3 Zrotation Xrotation Yrotation
															JOINT Model52
															{
																OFFSET -2.12921 0 0
																CHANNELS 3 Zrotation Xrotation Yrotation
																End Site
																{
																	OFFSET 0 0 0
																}
															}
														}
													}
												}
											}
										}
									}
								}
							}
						}
					}
				}
			}
		}
	}
	JOINT Model53
	{
		OFFSET 4.38025 -2.14632 -1.11517
		CHANNELS 3 Zrotation Xrotation Yrotation
		JOINT Model54
		{
			OFFSET 0 0 4.94998
			CHANNELS 3 Zrotation Xrotation Yrotation
			JOINT Model55
			{
				OFFSET 18.5642 0 0
				CHANNELS 3 Zrotation Xrotation Yrotation
				JOINT Model56
				{
					OFFSET 21.2884 0 0
					CHANNELS 3 Zrotation Xrotation Yrotation
					JOINT Model57
					{
						OFFSET 30.261 0 0
						CHANNELS 3 Zrotation Xrotation Yrotation
						JOINT Model58
						{
							OFFSET 11.7259 0 0
							CHANNELS 3 Zrotation Xrotation Yrotation
							JOINT Model59
							{
								OFFSET 10.682 0 0
								CHANNELS 3 Zrotation Xrotation Yrotation
								End Site
								{
									OFFSET 0 0 0
								}
							}
						}
					}
				}
			}
		}
	}
	JOINT Model60
	{
		OFFSET -4.38025 -2.14632 -1.11517
		CHANNELS 3 Zrotation Xrotation Yrotation
		JOINT Model61
		{
			OFFSET 0 0 -4.94998
			CHANNELS 3 Zrotation Xrotation Yrotation
			JOINT Model62
			{
				OFFSET -18.5642 0 0
				CHANNELS 3 Zrotation Xrotation Yrotation
				JOINT Model63
				{
					OFFSET -21.2884 0 0
					CHANNELS 3 Zrotation Xrotation Yrotation
					JOINT Model64
					{
						OFFSET -30.261 0 0
						CHANNELS 3 Zrotation Xrotation Yrotation
						JOINT Model65
						{
							OFFSET -11.7259 0 0
							CHANNELS 3 Zrotation Xrotation Yrotation
							JOINT Model66
							{
								OFFSET -10.682 0 0
								CHANNELS 3 Zrotation Xrotation Yrotation
								End Site
								{
									OFFSET 0 0 0
								}
							}
						}
					}
				}
			}
		}
	}
}
MOTION
Frames: 4
Frame Time: 0.033333
-320.458 175.063 -362.796 164.959 -87.1617 166.12 -180 4.29621e-031 -90 -0.0978598 0.152567 -0.417926 -0.194613 0.305407 -0.835596 -0.194613 0.305844 -0.835594 3.80579 0.225601 -0.512086 15.6006 0.352316 3.46719 120.092 75.5343 58.4939 15.9673 4.8188 -1.5327 -167.277 84.4999 48.8109 166.305 -11.8938 -31.288 3.90575e-006 12.7309 3.04082e-005 0.158719 -2.71732 2.73312 -1.94385e-007 -4.01739 -4.61472e-007 3.78268 0.133076 4.02827 -72.0648 39.0385 39.3397 33.3638 2.10362 14.835 0.588947 0.308273 6.35287 -99.6409 81.413 100.35 -0.0181409 2.77856e-005 -0.117315 -0.124139 0.00241113 -0.799296 -79.8382 79.5773 80.5374 -0.000225788 -0.000220916 2.22023e-005 -0.000956242 0.000122904 -2.731e-005 -66.7416 80.4058 67.2171 -0.000437144 1.59522e-005 -2.73124e-005 -0.00013662 -0.000109282 -5.46302e-005 -6.42159 81.2158 8.01779 -0.000218578 1.69097e-005 0.000212149 0.000901568 -0.0001848 -0.000218553 -59.9282 75.5373 58.5147 13.4174 6.57184 -0.685527 -167.277 84.4999 48.8109 167.644 -19.4221 -22.2742 7.13121e-006 -0.336162 2.90956e-005 -1.37381 14.371 -0.223629 -9.00831e-006 21.5877 4.36218e-006 1.46016 -0.0666579 -5.22743 -72.0648 39.0385 39.3397 33.3638 2.10361 14.835 0.588946 0.308273 6.35287 -99.6409 81.413 100.35 -0.0181409 3.00747e-005 -0.117315 -0.124139 0.00241113 -0.799296 -79.8382 79.5773 80.5374 -0.000260659 -0.00021857 2.35837e-005 -0.000956243 0.000122991 -2.73027e-005 -66.7416 80.4058 67.2171 -0.000437145 1.48776e-005 -2.73069e-005 -0.000136621 -0.000109288 -5.46228e-005 -6.42159 81.2158 8.01779 -0.000218578 1.95769e-005 0.000212312 0.000901567 -0.000191248 -0.000218545 0.000811311 0.56661 89.91 -14.3296 -4.2045 -9.3012 -9.43138e-008 -0.252925 -7.37854e-010 35.4318 -2.50525 -2.10327 -1.23518e-007 -3.82743 -1.13728e-007 -68.2821 -4.03268 1.23031 -35.4947 -4.52736e-007 3.52509e-007 -180 -0.566579 -90.09 -12.8224 -5.93063 -11.2948 -4.49141e-007 -1.29715 -1.16341e-008 27.6296 -3.3186 -2.90337 2.66346e-007 -5.03598 -3.15643e-007 -60.1268 -5.60889 2.90027 -35.4947 1.98455e-007 -5.65621e-008 
-320.444 175.088 -362.842 164.18 -87.2268 165.335 -180 4.29621e-031 -90 -0.112516 0.170197 -0.427841 -0.223768 0.340792 -0.855352 -0.223768 0.341229 -0.85535 3.99383 0.265592 -0.822283 14.8282 0.34634 4.04833 120.092 75.5343 58.4939 16.0293 5.2503 -1.47434 -167.277 84.4999 48.8109 166.605 -12.1289 -31.4052 3.98777e-006 12.58 3.03903e-005 0.165295 -2.6229 2.92908 -1.93246e-007 -3.8764 -4.61394e-007 3.76404 0.121104 3.68428 -72.0648 39.0385 39.3397 33.3638 2.10362 14.835 0.588947 0.308273 6.35287 -99.6409 81.413 100.35 -0.0181409 2.77856e-005 -0.117315 -0.124139 0.00241113 -0.799296 -79.8382 79.5773 80.5374 -0.000225788 -0.000220916 2.22023e-005 -0.000956242 0.000122904 -2.731e-005 -66.7416 80.4058 67.2171 -0.000437144 1.59522e-005 -2.73124e-005 -0.00013662 -0.000109282 -5.46302e-005 -6.42159 81.2158 8.01779 -0.000218578 1.69097e-005 0.000212149 0.000901568 -0.0001848 -0.000218553 -59.9282 75.5373 58.5147 13.2449 6.65432 -0.632188 -167.277 84.4999 48.8109 167.763 -19.487 -22.4311 7.13265e-006 -0.339008 2.90956e-005 -1.38002 14.2117 -0.219425 -8.98877e-006 21.3487 4.35503e-006 1.45397 -0.066501 -5.23732 -72.0648 39.0385 39.3397 33.3638 2.10361 14.835 0.588946 0.308273 6.35287 -99.6409 81.413 100.35 -0.0181409 3.00747e-005 -0.117315 -0.124139 0.00241113 -0.799296 -79.8382 79.5773 80.5374 -0.000260659 -0.00021857 2.35837e-005 -0.000956243 0.000122991 -2.73027e-005 -66.7416 80.4058 67.2171 -0.000437145 1.48776e-005 -2.73069e-005 -0.000136621 -0.000109288 -5.46228e-005 -6.42159 81.2158 8.01779 -0.000218578 1.95769e-005 0.000212312 0.000901567 -0.000191248 -0.000218545 0.000811311 0.56661 89.91 -14.3636 -4.1347 -9.14576 -9.43138e-008 -0.253039 -7.37854e-010 35.3153 -2.56809 -2.28736 -1.23707e-007 -3.92203 -1.13741e-007 -68.212 -4.19408 1.32246 -35.4947 -4.2482e-007 3.44735e-007 -180 -0.566579 -90.09 -12.8352 -6.01387 -11.1607 -4.49185e-007 -1.51491 -1.16352e-008 27.3962 -3.23531 -3.29538 2.6703e-007 -4.91226 -3.15584e-007 -59.9783 -5.80475 3.03978 -35.4947 1.80284e-007 -4.71114e-008 
-320.455 175.097 -362.886 162.711 -87.2576 163.885 -180 4.29621e-031 -90 -0.126295 0.160253 -0.426916 -0.251402 0.321004 -0.853482 -0.251402 0.321441 -0.85348 4.13285 0.361618 -0.934028 14.135 0.407309 4.24913 120.092 75.5343 58.4939 16.1266 5.55337 -1.44489 -167.277 84.4999 48.8109 166.87 -12.3361 -31.4114 4.07397e-006 12.4213 3.03716e-005 0.167506 -2.57579 3.01198 -1.92678e-007 -3.806 -4.61356e-007 3.87129 0.122462 3.62236 -72.0648 39.0385 39.3397 33.3638 2.10362 14.835 0.588947 0.308273 6.35287 -99.6409 81.413 100.35 -0.0181409 2.77856e-005 -0.117315 -0.124139 0.00241113 -0.799296 -79.8382 79.5773 80.5374 -0.000225788 -0.000220916 2.22023e-005 -0.000956242 0.000122904 -2.731e-005 -66.7416 80.4058 67.2171 -0.000437144 1.59522e-005 -2.73124e-005 -0.00013662 -0.000109282 -5.46302e-005 -6.42159 81.2158 8.01779 -0.000218578 1.69097e-005 0.000212149 0.000901568 -0.0001848 -0.000218553 -59.9282 75.5373 58.5147 13.1447 6.87322 -0.568824 -167.277 84.4999 48.8109 167.954 -19.5565 -22.5111 7.13395e-006 -0.341573 2.90956e-005 -1.3844 14.0992 -0.216478 -8.975e-006 21.1798 4.35004e-006 1.43433 -0.0663124 -5.29391 -72.0648 39.0385 39.3397 33.3638 2.10361 14.835 0.588946 0.308273 6.35287 -99.6409 81.413 100.35 -0.0181409 3.00747e-005 -0.117315 -0.124139 0.00241113 -0.799296 -79.8382 79.5773 80.5374 -0.000260659 -0.00021857 2.35837e-005 -0.000956243 0.000122991 -2.73027e-005 -66.7416 80.4058 67.2171 -0.000437145 1.48776e-005 -2.73069e-005 -0.000136621 -0.000109288 -5.46228e-005 -6.42159 81.2158 8.01779 -0.000218578 1.95769e-005 0.000212312 0.000901567 -0.000191248 -0.000218545 0.000811311 0.56661 89.91 -14.454 -4.11459 -9.13972 -9.43136e-008 -0.239441 -7.37853e-010 35.3066 -2.55503 -2.33003 -1.23668e-007 -3.90253 -1.13738e-007 -68.1806 -4.19936 1.32786 -35.4947 -3.90428e-007 3.34229e-007 -180 -0.566579 -90.09 -12.8729 -6.01493 -11.153 -4.49187e-007 -1.52829 -1.16353e-008 27.3575 -3.24888 -3.26024 2.66919e-007 -4.9324 -3.15593e-007 -59.9486 -5.81869 3.05181 -35.4947 1.36512e-007 -2.73505e-008 
-320.473 175.093 -362.93 161.848 -87.2385 163.029 -180 4.29621e-031 -90 -0.129296 0.141432 -0.421906 -0.257556 0.283375 -0.843496 -0.257556 0.283812 -0.843494 4.04822 0.4552 -0.695226 13.7694 0.509661 3.86877 120.092 75.5343 58.4939 16.1847 5.648 -1.44163 -167.277 84.4999 48.8109 166.986 -12.3969 -31.3261 4.10153e-006 12.3705 3.03657e-005 0.16241 -2.5805 2.9162 -1.92732e-007 -3.81266 -4.6136e-007 4.01825 0.136999 3.90382 -72.0648 39.0385 39.3397 33.3638 2.10362 14.835 0.588947 0.308273 6.35287 -99.6409 81.413 100.35 -0.0181409 2.77856e-005 -0.117315 -0.124139 0.00241113 -0.799296 -79.8382 79.5773 80.5374 -0.000225788 -0.000220916 2.22023e-005 -0.000956242 0.000122904 -2.731e-005 -66.7416 80.4058 67.2171 -0.000437144 1.59522e-005 -2.73124e-005 -0.00013662 -0.000109282 -5.46302e-005 -6.42159 81.2158 8.01779 -0.000218578 1.69097e-005 0.000212149 0.000901568 -0.0001848 -0.000218553 -59.9282 75.5373 58.5147 13.1295 7.06907 -0.528475 -167.277 84.4999 48.8109 168.073 -19.5885 -22.5035 7.13443e-006 -0.342511 2.90956e-005 -1.38804 14.006 -0.21405 -8.96363e-006 21.04 4.34594e-006 1.39819 -0.0652911 -5.34701 -72.0648 39.0385 39.3397 33.3638 2.10361 14.835 0.588946 0.308273 6.35287 -99.6409 81.413 100.35 -0.0181409 3.00747e-005 -0.117315 -0.124139 0.00241113 -0.799296 -79.8382 79.5773 80.5374 -0.000260659 -0.00021857 2.35837e-005 -0.000956243 0.000122991 -2.73027e-005 -66.7416 80.4058 67.2171 -0.000437145 1.48776e-005 -2.73069e-005 -0.000136621 -0.000109288 -5.46228e-005 -6.42159 81.2158 8.01779 -0.000218578 1.95769e-005 0.000212312 0.000901567 -0.000191248 -0.000218545 0.000811311 0.56661 89.91 -14.5217 -4.15343 -9.20077 -9.4314e-008 -0.268214 -7.37855e-010 35.3474 -2.5 -2.29474 -1.23503e-007 -3.8199 -1.13727e-007 -68.1714 -4.05943 1.25349 -35.4947 -3.50034e-007 3.2119e-007 -180 -0.566579 -90.09 -12.923 -6.05761 -11.2734 -4.49186e-007 -1.52076 -1.16352e-008 27.4389 -3.22888 -3.03394 2.6709e-007 -4.90143 -3.15579e-007 -59.9903 -5.73124 2.99202 -35.4947 7.00927e-008 1.53106e-009 
